<?xml version="1.0" encoding="UTF-8"?>
<svg id="Camada_3" xmlns="http://www.w3.org/2000/svg" version="1.1" xmlns:xlink="http://www.w3.org/1999/xlink" viewBox="0 0 1692.3 291.1">
  <!-- Generator: Adobe Illustrator 30.4.0, SVG Export Plug-In . SVG Version: 2.1.4 Build 226)  -->
  <defs>
    <style>
      .st0 {
        fill: #c93b66;
      }

      .st1 {
        fill: #f4bf29;
      }

      .st2, .st3 {
        fill: #fff;
      }

      .st4 {
        fill: #ff914d;
      }

      .st5 {
        fill: none;
      }

      .st6, .st7 {
        font-family: Raleway-Regular, Raleway;
      }

      .st3 {
        font-size: 40.5px;
      }

      .st8, .st9 {
        font-family: Raleway-Bold, Raleway;
        font-weight: 700;
      }

      .st10 {
        opacity: 0;
      }

      .st10, .st11 {
        fill: #fade99;
      }

      .st12 {
        fill: #4473b2;
      }

      .st13 {
        fill: #c7d4b2;
      }

      .st13, .st11 {
        opacity: .1;
      }

      .st7 {
        font-size: 24px;
      }

      .st14 {
        fill: #b23040;
      }

      .st9 {
        font-size: 28px;
        letter-spacing: 0em;
      }

      .st15 {
        fill: #87aa61;
      }
    </style>
  </defs>
  <g id="Camada_1">
    <rect class="st12" y="12.3" width="1692.3" height="261.3"/>
    <path class="st11" d="M90.9,146.1c1.6-.1,1.8-1.6,3.6-3.5,1.6-1.7,3-5.3,2.6-6.3,1.6-2.3,2.3-5,2.8-7.7,2.2-12.7-2.2-27.1-13.2-34.6-5.4-3.7-11.8-5.6-18.2-7-2.9-.6-5.7-1.3-8.5-2.3.2,0,.4,0,.6-.2h0c2,.2,4.3-.1,6.5-.8,2.4-.7,5.8-3.3,5.6-3.5-.1-.2-3.5,2.1-5.7,2.8-1.5.5-3.2.7-4.7.8,5.1-1.6,9.3-4.7,12.6-7.9,3.6-3.6,7-9.5,6.7-9.6-.3-.1-3.7,5.5-7.2,9-3.2,3.2-7.3,6.2-12.2,7.8,3.8-2,7.1-4.4,9.8-7.3,2-2.2,4.7-6.9,4.4-7.1-.3-.2-2.9,4.4-4.8,6.5-2.9,3.1-6.6,5.8-10.8,7.8,8-5,12.6-12.6,16.6-18.8,2.9-4.5,6.2-11.4,5.8-11.6-.5-.2-3,6.3-5.9,10.7-4.2,6.4-8.6,13.4-16.7,18.9.2-.2.4-.5.6-.7,6.6-5.4,10.4-11.1,13.5-17.1,1.1-2.1,2.6-6.8,2.3-6.6-.4.2-1.6,4-2.6,6-2.6,5.1-6.1,9.6-10.3,13.8,3.2-4.5,6.6-9.8,9.3-14.8,3.7-6.7,7.1-14.3,6.9-14.3-.2,0-3.8,7.3-7.7,14.3-3.4,6.1-7.6,12.4-11.4,17.3,2.6-4,6.2-10.3,9.2-16,2.9-5.5,5.9-12.6,5.7-12.7-.2,0-3.5,7-6.5,12.6-2.6,4.9-5.5,10.2-8,14.1.7-2,1.5-4.3,2.2-6.9,1.2-2.7,2.6-5.5,4.1-8.4,3.4-6.4,9.7-16.6,9.6-16.8-.3-.3-6.8,9.9-10.4,16.7-.8,1.5-1.5,2.9-2.2,4.3,1.1-4.3,2.1-8.8,2.8-13.2,0-.5.1-1,.2-1.5.7-1.3,1.3-2.5,1.8-3.5.6-1.1,1.6-3.2,1.4-3.3-.2-.1-1.7,2.7-2.3,3.8-.2.4-.5.9-.7,1.4.3-3.4.5-7,.2-7-.3,0-.6,5.2-1.1,8.9-1.5,3-3.3,6.9-5.1,12.3.4-4.8.6-9.8.5-14.2,1.1-2.9,2-5.1,1.9-5.2-.2,0-1,1.4-1.9,3.4,0-.9,0-1.8-.1-2.6-.2-2.2-1-6.2-1.1-5.8-.1.5.3,5,.5,8,0,.6,0,1.3,0,2-.6,1.4-1.1,2.9-1.5,4.2,0-1.6,0-3.1-.1-4.5,0-2.2-.2-9-.5-9-.3,0-.3,6.7-.2,9,0,.5,0,1,0,1.5-.5.8-2,4.4-2.4,6.4-1.3,5.5-1.6,11.5-.8,17.7-2.4-8.8-3-17.1-2.7-23.3.2-3.2,1.1-7.7.7-7.8-.3,0-1.4,5.1-1.5,8.9-.2,7,.7,16.5,3.9,26.2-3.9-8.4-5.5-15.4-6.2-20.6-.4-3.5-.5-7.5-.8-7.7-.2-.2-.3,4.4.1,8,.6,4.9,2.1,11.4,5.5,19.2-4-4.8-7.1-11-9.1-16.4-1.6-4.5-2.5-10.9-2.9-11-.3,0,.6,6.6,2.3,11.2,2.3,6.3,6.1,13.4,10.8,18.5.1.2.2.5.4.7-6.2-4.5-11.2-9.8-14.6-15.7-1.1-1.9-2.4-5.7-2.9-5.9-.3-.2,1.4,4.5,2.6,6.5,3.4,5.9,8.3,11.2,14.5,15.7-8.4-3.4-15.2-9.5-19.5-14.3-2.6-2.9-4.7-6.2-5.1-6.5-.3-.3,1.9,4,4.5,6.9,4.3,4.9,11.2,10.9,19.6,14.4-8.3-1.3-14.8-5.2-19.4-8.9-5.3-4.3-8.2-8.5-8.5-8.4-.2.1,2.6,4.6,8.1,9,4.5,3.7,10.8,7.4,18.8,8.8-6.2,0-13.1-1.6-18.8-3.4-6.7-2.2-11.8-4.9-11.8-4.6,0,.4,4.8,3.1,11.6,5.3,5,1.6,11,3.1,16.7,3.4-8.1.1-15.3-1.4-20.8-3.3-7-2.3-11-4.4-11.8-4.5-.6,0,4.2,2.7,11,5,6.1,2.1,14.4,3.9,23.9,3.4-4.1.7-8.3.8-12,.8-7-.1-12.5-1.3-12.2-1,.3.2,5,1.1,11.6,1.4,3.1.2,6.5.2,10-.2-9,2.4-19.1,3-26.6,3-6.3,0-10.9-.2-10.9,0,0,.3,4.5.7,10.9.7,8.2,0,19.7-.8,29.3-3.8-10.1,4.4-21.1,5.8-29.5,6-4.3.1-10.4-.3-10.4,0,0,.2,6.1.8,10.1.7,9-.2,20.3-1.8,30-6-7.3,5.7-18.7,8.3-27.8,9.2-7.3.8-14.8,0-14.5.3.2.2,6.7,1.3,13.9.6,8.7-.8,19.7-3.1,27.4-8.4-6.7,5.7-16.2,8.2-22.9,9.1-2.9.4-6.4.4-6.8.7-.3.2,4.1.4,7.2,0,7.5-1,18.2-4.1,24.9-11-7.4,9.2-19.4,12.8-28.9,13.7-4.1.4-10.6,0-10.4.1.4.4,5.9,1,9.8.7,9.3-.7,21.1-4.1,28.9-12.7-3.6,6.3-10.5,12.7-23.3,15.4-2.4.5-8.2,1.2-7.9,1.4.2.2,5.5-.2,7.9-.7,13-2.7,20.1-9.1,23.9-15.5-4.8,10.9-14.2,15.2-21.3,16.9-5.3,1.2-9.9,1.1-9.5,1.4.2.1,4.2.6,9.5-.7,7.3-1.7,17-6.1,21.9-17.4-3.1,10.2-10.5,16.3-16.6,19.8-3.3,1.9-8.1,3.7-7.7,3.9.2.1,4.7-1.3,8-3.2,6.4-3.6,14.2-10.1,17.3-21-.9,8.6-3.3,14-5.7,17.3-2.5,3.4-5.1,4.9-4.9,5,.3.2,2.8-.9,5.3-4.4,2.2-3.1,4.6-8,5.8-15.5.2,3,.6,5.6,1.1,7.7.9,3.7,2.1,5.9,2.5,5.9.5,0-1-2.1-1.8-5.8-.6-2.8-1.2-6.9-1.2-11.7.7,2.6,1.7,5.1,2.8,7.3,2.2,4.4,4.9,7.9,4.9,7.4,0-.6-2.1-3.3-4.2-7.7-1.4-2.8-2.6-6.1-3.2-9.5,5.6,2.8,12,3.3,17.9,5.5,16.7,5.2,24.4,21.1,21.9,37.7-.4,2.6-1.1,5.3-2.6,7.5-1.1-.2-3.6,1.5-4.7,3.5-1.3,2.3-2.8,6.6-1.1,6.5ZM58.6,80.6c0,.4-.1.8-.2,1.2,0,0,0-.1,0-.2,0-.3.1-.7.2-1ZM58.1,79.4c-.3-2.5-.4-6.1,0-10.5.3-2.8.8-5.7,1.5-8.6,0,4.6,0,9.6-.4,14.3-.4,1.5-.8,3.1-1.1,4.8ZM60,74.6c.2-.8.4-1.5.6-2.3-.4,2.9-.8,5.6-1.2,7.8.2-1.7.4-3.6.6-5.5ZM59.6,57.3c-1,3.7-1.8,7.8-2.2,11.5-.4,3.4-.4,6.4-.2,8.7-1.1-6.9-1-13.6.5-19.6.4-1.7,1.4-4.2,1.8-5.5,0,1.5,0,3.1,0,4.8ZM61,68c-.3.9-.6,1.9-.9,2.9.2-4.6.2-9.4.2-13.6.4-1.5.9-3.2,1.5-4.7,0,4.9-.3,10.3-.8,15.4ZM63.1,70.7c-.9,1.9-1.7,3.8-2.3,5.4.4-2.4.7-5.1,1-8,1.8-5.8,3.5-10.2,5.1-13.6-.9,5.5-2.3,11.3-3.7,16.2Z"/>
    <path class="st10" d="M488.4,234.1c0,2.4,2.3,2.8,4.8,5.6,2.3,2.5,7.6,5,9.1,4.4,3.2,2.5,7.2,3.9,11.1,4.8,18.7,4.5,40.4-.5,52.6-15.9,6.1-7.6,9.6-16.8,12.2-26,1.2-4.1,2.5-8.3,4.3-12.2,0,.3.1.6.2.8h0c-.5,2.9-.3,6.4.4,9.6.8,3.6,4.4,8.8,4.7,8.6.3-.2-2.7-5.3-3.5-8.6-.5-2.3-.8-4.7-.7-7,1.9,7.6,6,14.1,10.5,19.3,4.9,5.7,13.3,11.2,13.6,10.8.2-.4-7.8-5.9-12.6-11.4-4.4-5-8.5-11.4-10.3-18.7,2.5,5.8,5.9,10.9,9.8,15.1,3,3.2,9.8,7.5,10.1,7.1.3-.4-6.3-4.7-9.2-7.7-4.3-4.5-8-10.2-10.5-16.6,6.6,12.3,17.4,19.8,26.2,26.2,6.4,4.7,16.4,10.3,16.7,9.7.4-.7-9.1-5-15.3-9.7-9-6.8-19-13.9-26.4-26.4.3.3.7.6,1,.9,7.3,10.3,15.5,16.4,24,21.5,3,1.8,9.8,4.5,9.6,4-.3-.6-5.8-2.7-8.7-4.4-7.3-4.3-13.6-9.9-19.4-16.5,6.3,5.2,13.9,10.7,21,15.2,9.6,6.1,20.5,11.9,20.5,11.5,0-.3-10.4-6.3-20.4-12.7-8.7-5.6-17.7-12.4-24.6-18.5,5.7,4.3,14.7,10.1,22.9,15.1,7.9,4.8,18.1,9.8,18.2,9.6.2-.3-10-5.9-18-10.7-7-4.3-14.5-9.1-20.1-13.1,2.9,1.3,6.3,2.6,10.1,4,3.8,2.1,7.9,4.4,12.1,6.9,9.2,5.6,23.6,15.9,23.9,15.7.5-.4-14.1-11-23.7-16.9-2.1-1.3-4.2-2.5-6.2-3.7,6.2,2,12.9,4,19.3,5.4.7.2,1.5.3,2.3.5,1.9,1.1,3.6,2.1,5,2.9,1.5.9,4.5,2.6,4.7,2.4.2-.3-3.9-2.8-5.4-3.7-.6-.4-1.3-.8-2-1.2,5,.8,10.3,1.4,10.4,1,0-.4-7.7-1.5-13-2.6-4.2-2.5-9.9-5.5-17.7-8.7,7.1,1,14.5,1.9,21,2.2,4.1,1.9,7.4,3.5,7.5,3.3.1-.2-2-1.6-4.9-3.2,1.3,0,2.6,0,3.8,0,3.3,0,9.3-.8,8.7-1-.7-.2-7.4,0-11.9-.1-1,0-1.9,0-2.9-.1-2-1-4.1-1.9-6.1-2.7,2.4.1,4.7.2,6.6.3,3.3.1,13.4.6,13.4.1,0-.5-10-1.1-13.3-1.2-.7,0-1.4,0-2.2,0-1.1-.8-6.3-3.3-9.2-4.2-8.1-2.5-16.9-3.5-26.2-3,13.3-2.7,25.7-2.7,34.8-1.6,4.8.6,11.4,2.3,11.5,1.8.1-.4-7.4-2.5-13.1-3.1-10.4-1-24.5-.6-39.3,3.1,12.9-4.9,23.5-6.5,31.2-7,5.2-.3,11.2,0,11.6-.4.3-.3-6.4-1-11.9-.6-7.3.4-17.1,1.9-29,6.2,7.5-5.3,17-9.4,25.3-11.7,6.9-1.9,16.5-2.5,16.6-3.2,0-.5-9.8.2-16.9,2.2-9.5,2.7-20.5,7.6-28.5,14-.4.1-.7.3-1.1.4,7.3-8.6,15.7-15.5,24.7-19.8,3-1.4,8.7-3,9.1-3.6.3-.5-6.7,1.6-9.9,3.1-9.1,4.4-17.5,11.1-24.8,19.7,5.9-12,15.6-21.4,23.2-27.2,4.6-3.5,9.6-6.3,10.1-6.8.4-.5-6.1,2.3-10.7,5.9-7.7,5.9-17.3,15.3-23.3,27.3,2.8-12,9.2-21.2,15.2-27.5,6.9-7.3,13.5-11.2,13.3-11.6-.2-.4-7.1,3.4-14.2,11-5.9,6.3-12,15.1-15,26.7.6-9.2,3.7-19.1,7-27.2,3.9-9.6,8.5-16.8,8-16.8-.6,0-5.1,6.7-9,16.4-2.9,7.2-5.7,15.8-6.8,24.1.6-11.9,3.7-22.2,6.9-30.1,4.2-10,7.7-15.7,7.9-16.8.2-.9-4.4,5.9-8.5,15.6-3.7,8.8-7.3,20.7-7.4,34.6-.6-6.1-.4-12.3,0-17.7.9-10.2,3.2-18.2,2.8-17.8-.4.4-2.1,7.2-3.3,16.9-.5,4.5-.9,9.5-.8,14.7-2.6-13.4-2.5-28.3-1.8-39.3.6-9.3,1.4-15.9,1-15.9-.5,0-1.5,6.6-2.1,15.9-.8,12.1-.8,29,2.7,43.4-5.5-15.2-6.4-31.5-5.9-43.8.3-6.4,1.5-15.2,1.1-15.3-.2,0-1.8,8.9-2.1,14.7-.6,13.2.7,29.9,5.8,44.5-7.7-11.3-10.4-28.2-10.9-41.6-.4-10.8,1.6-21.7,1.1-21.3-.3.3-2.5,9.7-2.3,20.3.3,12.9,2.7,29.1,9.7,40.9-7.7-10.4-10.6-24.6-11.2-34.5-.3-4.3,0-9.4-.4-10-.3-.5-1,5.9-.6,10.5.8,11.1,4.3,27.1,13.8,37.6-13-11.7-17.1-29.7-17.5-43.7-.1-6.1,1.1-15.5.9-15.3-.6.6-2,8.5-2,14.3.2,13.7,3.9,31.4,15.9,43.6-9-6-17.7-16.6-20.5-35.8-.5-3.6-.9-12.1-1.3-11.8-.4.3-.3,8.1.2,11.7,2.7,19.4,11.5,30.3,20.6,36.5-15.7-8.2-21.1-22.3-22.9-32.9-1.3-7.9-.7-14.7-1.1-14-.2.3-1.2,6.1,0,14.1,1.8,10.9,7.3,25.5,23.6,33.9-14.8-5.6-23.2-17-27.7-26.3-2.5-5-4.7-12.3-5-11.7-.2.3,1.5,7,3.9,12,4.7,9.7,13.6,21.8,29.4,27.4-12.7-2.2-20.5-6.2-25.1-10.1-4.8-4-6.7-8-6.9-7.8-.4.4,1.1,4.1,6,8.2,4.4,3.6,11.4,7.6,22.4,10-4.5,0-8.4.4-11.5.9-5.6.9-9,2.5-9,3,0,.8,3.2-1.2,8.9-2.1,4.2-.7,10.4-1,17.4-.5-4,.7-7.8,2-11.2,3.3-6.8,2.7-12.2,6.5-11.5,6.4.8,0,5.2-2.7,11.9-5.4,4.3-1.7,9.3-3.3,14.4-3.7-4.8,7.9-6.1,17.3-9.9,25.6-9.4,23.9-33.8,33.6-58.1,28.3-3.9-.8-7.8-2.1-10.9-4.5.4-1.5-1.9-5.4-4.8-7.2-3.2-2.1-9.6-4.7-9.5-2.3ZM588.8,193.3c-.6-.1-1.1-.3-1.7-.4,0,0,.2,0,.2,0,.5.1,1,.3,1.5.4ZM590.7,192.7c3.8-.1,9.2,0,15.5,1.1,4.1.7,8.4,1.8,12.6,3-6.8-.4-14.3-1-21.1-2-2.2-.7-4.6-1.4-7.1-2.2ZM597.5,195.9c1.1.4,2.2.7,3.3,1.1-4.3-.8-8.3-1.7-11.4-2.5,2.5.5,5.3,1,8.1,1.4ZM623.3,197.1c-5.4-1.8-11.4-3.4-16.9-4.4-5-.9-9.4-1.2-13-1.2,10.3-.9,20.3,0,29.1,2.6,2.4.8,6.1,2.5,7.9,3.3-2.2,0-4.6-.2-7.2-.3ZM607.2,198.1c-1.3-.5-2.8-1-4.2-1.5,6.8.8,13.9,1.3,20.1,1.6,2.2.7,4.6,1.7,6.9,2.7-7.2-.5-15.3-1.5-22.8-2.7ZM602.9,200.9c-2.8-1.5-5.4-2.9-7.8-4,3.6.8,7.6,1.5,11.8,2.2,8.5,3.2,14.8,6.2,19.7,8.8-8-1.9-16.5-4.5-23.7-7.1Z"/>
    <path class="st13" d="M1158.7,120.5c-3.1,2-5.6,6.1-5.2,7.8-3.4,2.6-7.6,4-11.8,4.9-26.4,5.6-52.7-4.9-62.7-30.8-4-9-5.5-19.2-10.6-27.7,5.5.5,11,2.2,15.6,4.1,7.2,2.9,11.9,5.9,12.8,5.9.8,0-5-4-12.4-7-3.6-1.5-7.8-2.8-12.1-3.6,7.6-.5,14.3-.1,18.8.6,6.1,1,9.6,3.2,9.6,2.3,0-.6-3.7-2.3-9.7-3.3-3.3-.6-7.5-1-12.4-1,11.9-2.6,19.5-6.9,24.2-10.7,5.3-4.4,7-8.5,6.5-8.9-.2-.2-2.3,4.1-7.5,8.4-5.1,4.2-13.4,8.5-27.2,10.8,17.1-6,26.7-19,31.9-29.5,2.6-5.4,4.5-12.6,4.3-12.9-.4-.6-2.8,7.3-5.5,12.7-5,10-14.1,22.4-30.1,28.3,17.7-9,23.7-24.8,25.7-36.6,1.4-8.6.3-14.8,0-15.2-.5-.7.1,6.6-1.3,15.1-1.9,11.4-7.8,26.7-24.8,35.5,9.8-6.7,19.4-18.5,22.4-39.4.5-3.8.7-12.3.2-12.6-.4-.3-.9,8.8-1.4,12.7-3,20.6-12.5,32.1-22.2,38.6,13-13.2,17.1-32.3,17.3-47.1,0-6.2-1.4-14.8-2.1-15.4-.3-.2,1.1,10,.9,16.5-.4,15.1-5,34.5-19,47.2,10.4-11.4,14.2-28.6,15.1-40.6.4-4.9-.3-11.9-.7-11.4-.4.7-.2,6.2-.5,10.8-.7,10.8-3.9,26.1-12.3,37.3,7.6-12.7,10.2-30.3,10.7-44.2.3-11.5-2-21.6-2.4-21.9-.6-.5,1.6,11.3,1.1,23-.6,14.5-3.6,32.7-11.9,44.9,5.6-15.8,7-33.9,6.5-48.1-.2-6.2-2-15.9-2.2-15.9-.4,0,.8,9.6,1.1,16.5.5,13.3-.6,30.9-6.5,47.3,3.9-15.5,3.8-33.8,3.1-46.9-.6-10.1-1.7-17.2-2.2-17.2-.5,0,.4,7.2,1,17.2.7,11.8.8,28-2.1,42.4.2-5.6-.2-11-.8-15.9-1.3-10.5-3.1-17.9-3.5-18.3-.5-.4,2,8.3,2.9,19.3.5,5.9.6,12.5,0,19.1-.1-15-3.9-28-7.9-37.5-4.4-10.5-9.3-17.9-9.2-16.9.2,1.2,4,7.3,8.4,18.2,3.5,8.5,6.8,19.7,7.4,32.5-1.1-9-4.1-18.3-7.2-26.1-4.2-10.5-9-17.8-9.7-17.8-.5,0,4.4,7.8,8.6,18.2,3.5,8.8,6.9,19.5,7.5,29.4-3.2-12.5-9.8-22.1-16.1-28.9-7.7-8.2-15.1-12.3-15.3-12-.2.4,6.8,4.6,14.3,12.6,6.5,6.9,13.3,16.8,16.3,29.8-6.5-13-16.9-23.2-25.1-29.5-5-3.9-12-6.9-11.6-6.4.5.6,6,3.6,10.9,7.3,8.2,6.3,18.6,16.5,24.9,29.5-7.9-9.3-17-16.6-26.7-21.4-3.4-1.7-11-3.9-10.7-3.4.4.7,6.5,2.3,9.8,3.9,9.7,4.7,18.8,12.1,26.6,21.4-.4-.2-.8-.3-1.2-.5-8.6-7-20.5-12.3-30.8-15.3-7.6-2.2-18.3-3-18.2-2.4.1.8,10.5,1.4,17.9,3.5,9,2.6,19.2,7,27.3,12.7-12.8-4.6-23.4-6.3-31.3-6.8-5.8-.4-13.1.3-12.8.6.4.4,6.8.2,12.5.5,8.3.5,19.7,2.3,33.6,7.6-16-4.1-31.2-4.6-42.5-3.5-6.1.6-14.2,2.9-14.1,3.3.2.5,7.3-1.4,12.5-2,9.9-1.1,23.2-1,37.6,1.9-10-.6-19.6.5-28.4,3.1-3.1.9-8.7,3.7-10,4.5-.8,0-1.6,0-2.4,0-3.6.1-14.4.7-14.4,1.3,0,.6,10.8,0,14.4,0,2.1,0,4.6-.2,7.2-.3-2.2.8-4.5,1.8-6.7,2.9-1.1,0-2.2,0-3.2.1-4.9,0-12.1-.2-12.9,0-.6.2,5.9,1,9.4,1.1,1.3,0,2.7,0,4.2,0-3.2,1.7-5.4,3.1-5.3,3.4.1.3,3.6-1.5,8.1-3.5,7-.3,15-1.2,22.7-2.3-8.5,3.5-14.6,6.7-19.2,9.4-5.8,1.2-14.2,2.3-14.1,2.7,0,.4,5.9-.1,11.2-1-.8.5-1.5.9-2.1,1.3-1.7,1-6.1,3.6-5.9,4,.2.3,3.4-1.5,5.1-2.5,1.5-.9,3.3-2,5.4-3.2.9-.2,1.7-.3,2.5-.5,6.9-1.5,14.2-3.6,20.9-5.8-2.2,1.3-4.5,2.6-6.7,3.9-10.5,6.3-26.3,17.8-25.7,18.1.4.2,15.9-10.9,25.9-16.9,4.4-2.7,8.9-5.2,13-7.4,4.1-1.5,7.8-2.9,10.9-4.3-6,4.2-14.1,9.4-21.7,14.1-8.6,5.2-19.6,11.2-19.5,11.5.1.3,11.2-5.1,19.7-10.3,8.9-5.4,18.6-11.6,24.8-16.2-7.4,6.5-17.1,13.9-26.6,19.9-10.8,6.8-22.1,13.3-22.1,13.6,0,.4,11.9-5.8,22.2-12.4,7.7-4.9,15.9-10.8,22.7-16.3-6.3,7.1-13.2,13.1-21,17.7-3.1,1.8-9.1,4-9.4,4.7-.3.5,7.1-2.3,10.4-4.3,9.2-5.5,18-12.1,26-23.2.4-.3.7-.7,1.1-1-8.1,13.5-18.9,21.1-28.6,28.5-6.7,5.1-16.9,9.7-16.5,10.4.3.6,11.1-5.4,18-10.4,9.5-6.9,21.2-15,28.4-28.2-2.8,6.9-6.7,13.1-11.4,17.9-3.1,3.2-10.2,7.9-9.9,8.3.3.4,7.7-4.3,11-7.7,4.3-4.5,7.9-10,10.7-16.2-2,8-6.5,14.8-11.2,20.2-5.2,5.9-13.9,11.9-13.7,12.3.2.4,9.3-5.5,14.7-11.6,4.9-5.5,9.4-12.6,11.4-20.8,0,2.4-.2,5-.8,7.5-.9,3.6-4.2,9.1-3.8,9.3.3.2,4.2-5.4,5.1-9.3.8-3.5,1-7.3.5-10.4h.1c0-.3.1-.6.2-.9,1.9,4.2,3.2,8.7,4.6,13.2,2.9,9.9,6.6,19.9,13.1,28.1,13.1,16.8,36.6,22.2,56.8,17.4,4.3-1,8.6-2.5,12.1-5.2,1.6.6,7.4-2.1,9.9-4.8,2.8-3,5.2-3.4,5.2-6,0-2.6-6.8.2-10.3,2.5ZM1062.2,73.2c0,0,.2,0,.3,0-.6.1-1.2.3-1.8.4.5-.1,1.1-.3,1.6-.4ZM1051,75.3c-7.4,1-15.4,1.7-22.8,2.1,4.5-1.3,9.2-2.5,13.7-3.2,6.9-1.2,12.7-1.3,16.8-1.2-2.7.8-5.2,1.5-7.6,2.3ZM1060,74.9c-3.4.9-7.7,1.8-12.4,2.7,1.2-.4,2.4-.8,3.6-1.2,3.1-.4,6-.9,8.8-1.5ZM1015.7,78c2-.8,5.9-2.7,8.6-3.5,9.5-2.9,20.3-3.8,31.4-2.8-3.8,0-8.6.3-14,1.2-5.9,1-12.3,2.7-18.2,4.6-2.8.1-5.4.3-7.8.4ZM1016.2,81.7c2.4-1.1,5-2.1,7.4-2.9,6.8-.3,14.4-.8,21.8-1.7-1.6.6-3.1,1.1-4.6,1.6-8.1,1.3-16.8,2.4-24.6,2.9ZM1019.7,89.4c5.3-2.8,12.2-6.1,21.3-9.5,4.6-.7,8.9-1.5,12.8-2.4-2.6,1.2-5.4,2.7-8.5,4.3-7.8,2.8-17,5.6-25.6,7.6Z"/>
    <path class="st13" d="M1507.2,282.3c.7,2.6,3.2,2.4,6.8,4.6,3.2,2,9.6,3.2,11.1,2.2,4.2,1.8,8.9,2.2,13.4,2,21.4-.5,43.4-12.1,52-32.3,4.3-9.9,5.4-20.8,5.6-31.4.1-4.8.3-9.6,1-14.3.1.3.3.6.4.9h0c.3,3.2,1.5,6.9,3.2,10.2,1.9,3.6,7.3,8.2,7.5,7.9.3-.3-4.5-4.9-6.3-8.3-1.2-2.3-2.2-4.9-2.8-7.3,4.2,7.6,10.6,13.5,16.9,17.7,7,4.7,17.6,8.2,17.7,7.8.1-.4-10.1-4.1-16.9-8.7-6.2-4.1-12.4-9.8-16.6-17.2,4.4,5.5,9.5,10,15,13.4,4.1,2.5,12.8,5.3,13,4.8.2-.5-8.1-3.3-12.1-5.6-6-3.6-11.5-8.7-16.1-14.9,10.6,11.3,24.4,16.3,35.8,20.7,8.2,3.2,20.6,6.3,20.7,5.7.2-.8-11.2-2.8-19.3-6.1-11.7-4.7-24.5-9.6-36.1-20.8.4.2.9.5,1.3.7,10.9,8.9,21.4,13.2,32,16.3,3.8,1.1,11.9,2,11.5,1.6-.5-.6-7-1.2-10.6-2.2-9.1-2.6-17.5-6.8-25.7-12.2,8.3,3.7,18,7.5,27,10.3,12.1,3.8,25.5,6.9,25.4,6.5,0-.3-13-3.8-25.6-7.8-11-3.5-22.6-8.3-31.8-12.8,7.4,2.9,18.7,6.6,29,9.6,9.9,2.9,22.3,5.4,22.4,5.1,0-.4-12.5-3.4-22.5-6.4-8.8-2.6-18.3-5.7-25.4-8.3,3.4.5,7.5,1,12,1.4,4.7,1.1,9.8,2.5,15,4,11.5,3.3,30,10.4,30.3,10,.5-.5-18.3-7.8-30.4-11.3-2.6-.8-5.2-1.5-7.8-2.2,7.3.4,15,.6,22.3.3.8,0,1.7,0,2.6-.1,2.4.6,4.4,1.2,6.2,1.7,1.9.6,5.6,1.5,5.7,1.2.1-.4-5-1.9-6.9-2.4-.8-.2-1.6-.5-2.5-.7,5.6-.5,11.5-1.5,11.5-1.9,0-.5-8.7.6-14.8,1-5.3-1.4-12.2-3.1-21.6-4.3,7.9-.9,16.1-2.2,23.2-3.7,5,.8,8.9,1.7,9,1.3,0-.3-2.6-1.1-6.2-2,1.4-.3,2.8-.7,4.1-1.1,3.5-1,9.8-3.5,9.1-3.6-.8,0-8,2.1-12.8,3.3-1,.3-2.1.5-3.2.7-2.4-.5-5-.9-7.4-1.1,2.6-.6,5.1-1.1,7.2-1.6,3.6-.8,14.6-3.2,14.4-3.7-.1-.5-11,1.7-14.7,2.5-.8.2-1.6.3-2.4.5-1.4-.5-7.8-1.8-11.1-1.9-9.4-.3-19.2,1.1-29.1,4.3,13.6-6.7,26.9-10.3,37-11.8,5.3-.8,12.9-.7,12.9-1.3,0-.4-8.7-.6-14.9.4-11.5,1.9-26.5,6.4-41.4,14.6,12.4-8.9,23.3-13.7,31.5-16.4,5.5-1.8,12.1-3.3,12.3-3.8.2-.5-7.2.8-12.9,2.7-7.7,2.6-17.9,7-29.4,15,6.6-7.9,15.6-15,23.8-19.9,6.8-4.1,17-7.4,16.9-8.2,0-.6-10.5,3-17.5,7.2-9.5,5.6-19.9,14-26.6,23.3-.4.3-.7.5-1.1.8,5.4-11.3,12.4-21.1,20.8-28.4,2.8-2.4,8.5-5.7,8.7-6.5.2-.6-6.8,3.6-9.8,6.2-8.5,7.3-15.6,16.9-21,28.3,2.9-14.6,10.5-27.5,17-35.9,3.9-5.1,8.5-9.5,8.9-10.2.3-.6-5.8,4.3-9.8,9.4-6.5,8.5-14.2,21.4-17.2,36-.5-13.7,3.7-25.4,8.3-34,5.3-9.9,11.3-15.9,10.9-16.3-.3-.3-6.6,5.7-12.1,15.9-4.5,8.4-8.5,19.7-8.4,33-2-10-1.5-21.6-.4-31.3,1.4-11.5,4.2-20.6,3.7-20.4-.7.2-3.5,8.7-4.9,20.3-1,8.6-1.5,18.7-.3,27.9-2.8-13-2.5-25-1.3-34.4,1.6-12,3.7-19.1,3.6-20.3,0-1.1-3,7.6-4.6,19.2-1.5,10.5-1.8,24.4,2.1,39.4-2.4-6.4-4-13.1-5.1-19.1-2-11.2-1.9-20.5-2.2-20-.3.5-.2,8.3,1.4,19.2.7,5,1.8,10.5,3.4,16-6.7-13.6-10.9-29.7-13.4-41.7-2.1-10.1-3.1-17.5-3.6-17.4-.5.1.3,7.5,2.4,17.7,2.7,13.2,7.5,31.4,15.5,45.9-10.3-14.8-16.1-32-19.1-45.4-1.5-6.9-2.8-16.8-3.3-16.7-.2,0,.6,10.1,2,16.4,3.2,14.3,9.4,31.9,19.2,46.2-11.6-10-19.4-27.4-23.8-41.6-3.6-11.5-4.6-23.8-5-23.2-.3.4,0,11.1,3.5,22.4,4.1,13.8,11.4,30.6,22.4,41.3-11.3-9-18.5-23.4-22.1-33.9-1.5-4.5-2.7-10.1-3.3-10.7-.5-.5.7,6.7,2.4,11.5,4.1,11.7,12.5,27.9,25.8,36.5-17.3-8.9-27-27-31.5-42-1.9-6.5-3.3-17-3.5-16.7-.5.8.3,9.7,2,15.9,4.2,14.7,13.3,32.7,29.8,42.4-11.4-3.9-23.9-12.8-32.4-32.6-1.6-3.7-4.5-12.7-4.8-12.3-.3.4,2,8.8,3.6,12.5,8.5,20.1,21.2,29.3,32.7,33.4-19.3-4.3-29.2-17.9-34.2-28.8-3.7-8.1-5-15.6-5.3-14.7-.1.4.4,6.9,4.1,15.1,5.1,11.2,15.3,25.3,35.3,29.7-17.5-1.8-29.9-11.7-37.5-20.4-4.1-4.7-8.6-11.8-8.8-11.2-.1.4,3.7,7.1,7.7,11.8,7.9,9.1,20.9,19.6,39.6,21.1-14.3,1.3-23.8-.8-30-3.6-6.3-2.9-9.5-6.7-9.7-6.4-.3.5,2.4,4.1,8.9,7.1,5.7,2.6,14.4,4.9,27,4.3-4.9,1.3-8.9,2.8-12.1,4.3-5.7,2.6-9,5.3-8.8,5.9.2.9,3.1-2.2,8.9-4.8,4.4-1.9,10.9-4.1,18.6-5.6-4.1,1.9-7.8,4.3-11,6.8-6.5,4.9-11.2,10.4-10.5,10.2.9-.3,4.8-4.4,11.2-9.3,4.1-3.1,9.1-6.2,14.5-8.1-2.8,9.9-1.6,20.4-3.2,30.4-3.1,28.4-26.6,45.8-54.3,47.2-4.4.2-9,0-13.1-1.8,0-1.8-3.6-5.2-7.2-6.4-4.1-1.3-11.7-2.3-10.9.3ZM1650.3,189.1c-.3,0-.5,0-.8,0,0,0,0,0,.1,0,.2,0,.5,0,.7,0ZM1651,188.6c1.7-.5,4.1-1.1,7.1-1.3,1.9-.2,4-.2,6-.2-3.1.6-6.5,1.2-9.7,1.6-1.1,0-2.2,0-3.4-.1ZM1654.5,189.3c.6,0,1.1,0,1.6,0-2,.2-3.9.2-5.4.2,1.2,0,2.5-.2,3.8-.3ZM1666.1,186.7c-2.7-.2-5.5-.2-8.1,0-2.4.2-4.4.6-5.9,1,4.5-1.6,9.1-2.5,13.3-2.3,1.2,0,3,.4,3.9.5-1,.2-2.1.5-3.3.7ZM1659.1,189.1c-.7,0-1.4-.1-2.1-.2,3.1-.5,6.4-1.1,9.2-1.7,1.1,0,2.3.2,3.4.4-3.3.6-7,1.2-10.5,1.5ZM1657.5,190.9c-1.4-.3-2.8-.6-4-.8,1.7,0,3.6-.2,5.6-.4,4.2.4,7.4,1,9.9,1.6-3.8.1-7.9,0-11.5-.3Z"/>
    <rect class="st5" x="295" y="7.4" width="1091.1" height="264.4" rx="20" ry="20"/>
    <image width="338" height="89" transform="translate(1362.7827 34.6195) scale(.5651)" xlink:href="../../IMGS/logo-RCPE-branca.png"/>
    <g>
      <path class="st15" d="M416.3,227.5c4.9,0,13.3,1.6,11.6,4.1-1.7,2.5-4.3,1.4-8.9,2.6-4.6,1.2-13.2-.2-12.8-2.1.4-1.9,5.6-4.5,10.1-4.5"/>
      <path class="st15" d="M357.8,123.1c11.7-16.2,17-33.2,19.4-46.3,2.4-13,2.3-23.4,1.8-22.2-.5,1.3-.8,9.6-3.4,23-2.4,12.7-7.7,29.1-19,44.7l1.1.8"/>
      <path class="st0" d="M355.3,126.7c8.2-8.1,14.6-18.6,19.1-27.6,5.5-11.1,8.4-19.4,8.2-20.1-.2-.7-3.3,9.3-9.4,20.6-4.7,8.6-11.1,18.4-18.9,26.1l1,1"/>
      <path class="st1" d="M356.8,124.3c16.1-12.6,29.9-33.6,38.5-48.6,5.9-10.2,9.4-17.9,8.8-18.2-.5-.3-4.2,7.3-10,17.4-8.5,14.9-22.3,35.8-38.2,48.3l.9,1.1"/>
      <path class="st1" d="M356.6,120.7l-.2,2.2c.2-.4,1.8-2.1,2-2.5,6.7-10.5,10.8-24.6,13.2-36.4,2.6-12.9,2.6-23,1.9-23.4-.5-.3-.7,10.4-3.3,23.2-2.5,12.1-6.7,26.5-13.7,37"/>
      <path class="st4" d="M354.9,123.3l1.2.6c7.7-16.6,7.6-32.8,5.5-45.1-2.2-12.9-6.9-21.6-7.3-21.3-.5.3,3.7,8.8,5.9,21.2,2.2,12.1,2.3,28.2-5.3,44.6"/>
      <path class="st15" d="M354.9,123.5l1.3.3c3.7-18.6-.3-37.6-4.8-50.4-2.4-6.9-7.3-14.3-7.2-13.5.1.9,3.5,7.2,5.9,14,4.4,12.5,8.4,31.2,4.7,49.6"/>
      <path class="st1" d="M354.9,123.6h1.4c-1.3-16.3-5.7-30.8-13-43-2.3-3.8-8.2-10.8-8.3-10.1,0,.9,4.9,6.4,7,10,7.3,12.1,11.6,27,12.8,43.1"/>
      <path class="st0" d="M353.6,120.7l.9-1c-12.1-10.9-25.3-18.5-39-22.5-4.3-1.2-13.4-2.2-13-1.7.6.7,7.9,1.3,12,2.5,13.6,3.8,27,11.8,39,22.7"/>
      <path class="st14" d="M351.5,122.7l4.8-.7c-17.6,8.3-32.3,9.5-46.5,9-4.4-.1-13.4-2-12.9-2.3.8-.5,8,1.2,12.2,1.3,14.1.5,28-2.3,42.5-7.3"/>
      <path class="st15" d="M354.2,126.3l1.4-.2c-1.9-14.8-12.2-31.7-22.4-43.4-6-6.9-15.9-14.5-16.2-13.9-.4.8,9.3,8,15.2,14.7,10,11.5,20.2,28.2,22,42.8"/>
      <path class="st1" d="M355.2,122.9l1.1-.9c-14.1-17.1-31-29-44.1-35.8-6.3-3.3-15.7-6.2-15.9-5.7-.2.6,8,3.3,13.4,5.9,13.2,6.6,30.9,18.7,45.5,36.4"/>
      <path class="st4" d="M357.1,124.9c18.4-11.9,33.7-31.2,43.4-47.3,3.7-6.2,8.2-16.8,8-16.9-.5-.2-5.3,9.9-9.4,16.8-8.9,14.9-23.3,33.9-42.7,46.3l.7,1.1"/>
      <path class="st14" d="M378.8,153.5c.8.5-2.3-7.1-7.6-14.6-3.6-5.2-8.4-10.9-14.1-15.1l-.8,1.1c5.6,4.1,10.2,9.6,13.8,14.7,5.2,7.4,7.8,13.3,8.7,13.9"/>
      <path class="st0" d="M357,125.1c19.2,9.8,33.2,11.1,42.3,10.1,8-.9,12.2-3.9,12-4.5,0-.4-4.9,2.5-12.6,3.4-8.8,1-22.1-.5-41-10.2l-.6,1.2"/>
      <path class="st15" d="M387.6,148.5c.4-.6-2.1-4.6-7.4-9.4-5-4.5-12.6-10.3-23.2-15.4l-.6,1.2c10.3,5,18.5,10.9,23.4,15.3,5.3,4.8,7.3,9.1,7.8,8.3"/>
      <path class="st1" d="M356.7,125c25.9-1.1,45.6-19.9,56.7-36.3,4-6,8.1-15.2,7.8-16.3,0-.4-5.3,10.4-9.7,16.6-11,15.9-30.1,33.6-54.9,34.6v1.4"/>
      <path class="st1" d="M355.7,124.3c20.2-4.1,38.5-23.9,50-40.3,7.6-10.9,11.8-22.3,11.6-22.8-.3-.8-5.7,12-13.6,23.1-11.5,16-29.3,35-48.3,38.8l.3,1.3"/>
      <path class="st1" d="M355.4,124.3c29.2,8.2,48.8-5.4,59.7-17.3,6.9-7.5,9.8-14.3,9.8-14.7,0-1-4.1,6.6-10.9,13.9-10.7,11.6-29.8,24.8-58.2,16.8l-.4,1.3"/>
      <path class="st15" d="M355.7,124.4c24.5,10,45.9,2.4,59.4-5.6,6-3.6,12.4-9.4,12.4-9.9,0-.8-7.4,5.4-13.4,8.9-13.2,7.8-34.1,15.1-57.9,5.4l-.5,1.3"/>
      <path class="st4" d="M291.5,95c16.9,11.3,47.9,24.6,61.3,28.5l.4-1.3c-12.6-3.6-40.4-15.5-57.6-26.1-4.8-3-11.7-7.8-12.6-8-.8-.2,5.1,4.7,8.5,7"/>
      <path class="st15" d="M348.2,136.4c3.9-3.7,7.1-8.5,8-12.7l-1.3-.3c-.9,4-4.1,8.6-7.9,12.2-3.1,3-9.9,6.3-9.7,6.7.2.4,7.5-2.6,10.8-5.9"/>
      <path class="st4" d="M306.9,135.2c13.8-.8,30.5-1.3,46-9.8,1.2-.7,1.9-1.2,1.6-2-.9-2.9-20.7-5.3-40.9-5.9-14.2-.5-36.9.8-36.6,1.5.2.5,22.5-.6,36-.2,19.6.7,38.7,2.9,40.1,4.9,0,0-.3.1-.8.4-16.8,8.4-32.5,9.1-46.9,10.1-9.8.7-22.7-1.2-22.8-.2,0,.8,14.3,1.8,24.2,1.2"/>
      <path class="st0" d="M358.3,124c19.4-3,36-18.9,45.2-31.1,3.5-4.6,7.3-11.8,6.6-11.5-.8.4-4.1,5.9-7.4,10.2-9,12-25.5,28-44.7,31l.2,1.3"/>
      <path class="st4" d="M356.9,124.4c15.2,2.4,36.6-.2,57.1-23.6,3-3.4,8.5-11.6,8.3-12.1-.2-.6-6.5,8.1-9.5,11.5-20,22.7-40.9,25.2-55.6,22.9l-.2,1.3"/>
      <path class="st1" d="M308.3,127.6c17.2.2,37.6-1.5,49.1-4.3l-.4-1.3c-12.3,2.6-31.1,4.4-48,4.3-14.9-.1-30-.9-30.2-.6-.3.4,15.3,1.8,29.5,1.9"/>
      <path class="st14" d="M330.7,137.1c8.3-2,16.8-6,24.4-11.6l-.8-1.1c-7.6,5.6-16,9.6-24.2,11.5-5.1,1.2-15,1.2-14.9,1.8,0,.6,10.3.7,15.6-.6"/>
      <path class="st0" d="M298.7,110.4c20.4,7.5,45.7,13.1,54.3,13.1v-1.4c-8.6,0-33.7-5.6-53.9-13.1-6.4-2.4-17.1-7.5-17.3-7-.3.6,10.5,5.9,17,8.3"/>
      <path class="st15" d="M311.2,101.7c-9.7-2.5-23-3.6-23-4.2,0-.6,10.8,0,18.8,1.8-2.6-1.5-5.1-3-7.2-4.2-3.6-2.1-14.5-8.5-14.1-9,.3-.5,11.2,5.7,14.8,7.8,3.2,1.9,7,4.1,11.2,6.6,7,1.8,14.3,4.2,20.7,7,15.4,6.6,23.7,14.5,23.7,14.6l2,2-2.7-.8c-12.8-3.9-30.6-13.5-44.3-21.4M332,108.7c-4.8-2.1-10.1-3.9-15.4-5.5,11.6,6.6,25.2,13.7,36.1,17.5-3.5-2.8-10.5-7.7-20.7-12.1Z"/>
      <path class="st4" d="M354.7,121.2l1.1-.8c-11.3-16.8-22.7-27.2-31.4-33.6-5.5-4-13-8-12.9-7.4,0,.7,6.6,4.5,11.8,8.4,8.7,6.4,20,16.7,31.3,33.5"/>
      <path class="st15" d="M328.2,141.8c10.4-2.9,21.8-8.5,29.6-18.8l-1.1-.8c-7.6,10-18.9,15.5-29.1,18.3-8.8,2.5-21.1,2.8-21.2,3.4,0,.6,12.6.5,21.7-2.1"/>
      <path class="st14" d="M313.2,123.9c15.2.4,32.5.4,40.4-.8l-.2-1.4c-7.7,1.1-24.7,1.2-39.6.8-11.7-.3-26.3-1.4-26.3-1,0,.3,14.2,2,25.8,2.4"/>
      <path class="st1" d="M282.2,108.3c0,.4,4.3.7,6.6.7,10.9.4,31.1,1,66,12.3l.4-1.3c-35.1-11.3-53.8-11.5-64.7-11.9-2.3,0-8.3-.3-8.3.2"/>
      <path class="st15" d="M357.5,124.5c0,12.1-5.5,23.3-7.4,35.1-6.7,31.5,12.2,58.4,41.5,69.5,5.5,2.1,11.5,3.6,17.4,2.3,0,0,.2.7.2.7-6,1.4-12.2,0-17.9-2.1-22.8-8-42.2-28.1-44.3-52.8-1.2-12.1,1.6-24.2,5.1-35.6,1.7-5.7,3.4-11.3,4.2-17.2,0,0,1.2,0,1.2,0h0Z"/>
      <text class="st3" transform="translate(137.5 139.1)"><tspan class="st6"><tspan x="0" y="0">Curso</tspan></tspan><tspan class="st8" x="0" y="39.8">Ciência </tspan><tspan class="st6" x="152.9" y="39.8">da</tspan><tspan class="st8"><tspan x="0" y="79.5">Aprendizagem</tspan></tspan></text>
      <image width="86" height="80" transform="translate(314.7 84)" xlink:href="banner-principal-modulo-2-1.png"/>
    </g>
    <text class="st2" transform="translate(716.5 150.3)"><tspan class="st7"><tspan x="0" y="0">Módulo 2</tspan></tspan><tspan class="st9"><tspan x="0" y="39.6">Educação Especial na perspectiva da Educação inclusiva</tspan></tspan></text>
    <path class="st15" d="M675,161.7c0-13.4,10.9-24.3,24.4-24.3s0,0,0,0v-26.3s0,0,0,0c-28.1,0-50.9,22.7-50.9,50.6s22.7,50.5,50.8,50.6v-26.3c-13.4,0-24.3-10.9-24.3-24.3Z"/>
    <rect class="st5" y="12.3" width="1680.2" height="261.3"/>
  </g>
</svg>